# xmcd CD database file
#
# Track frame offsets:
#	150
#	17994
#	41428
#	59445
#
# Disc length: 1112 seconds
#
# Revision: 1
# Processed by: cddbd v1.5.1PL2 Copyright (c) Steve Scherf et al.
# Submitted via: CDex 1.60beta1
#
DISCID=2e045604
DTITLE=Various Artist - はぴねす！ 予約特典 マキシシングルCD 「ZERO」
DYEAR=2005
DGENRE=Game
TTITLE0=佐藤裕美 - ZERO
TTITLE1=はぴねす！ヒロインズ - 目覚めの朝
TTITLE2=Elements Garden - ZERO -Instrumental ver.-
TTITLE3=Elements Garden - 目覚めの朝 -Instrumental ver.-
EXTD=YEAR: 2005
EXTT0=
EXTT1=
EXTT2=
EXTT3=
PLAYORDER=
